<svg width="120" height="120" viewBox="0 0 120 120" fill="none" xmlns="http://www.w3.org/2000/svg">
<g clip-path="url(#clip0_121_1951)">
<mask id="mask0_121_1951" style="mask-type:luminance" maskUnits="userSpaceOnUse" x="19" y="15" width="79" height="93">
<path d="M97.4173 15.48V68.4807C97.4173 90.0695 79.915 107.572 58.3262 107.572C36.7374 107.572 19.2352 90.0695 19.2352 68.4807V15.48H55.8081V72.2747C52.6472 73.0325 50.2922 75.8816 50.2922 79.2727C50.2922 83.2442 53.5154 86.4674 57.4868 86.4674C61.4583 86.4674 64.6815 83.2442 64.6815 79.2727C64.6815 75.8816 62.3264 73.0325 59.1656 72.2747V15.48H97.4173Z" fill="white"/>
</mask>
<g mask="url(#mask0_121_1951)">
<path d="M116.603 103.256H-2.8287V104.695H116.603V103.256Z" fill="#FF0606"/>
<path d="M116.603 96.4688H-2.8287V98.4593H116.603V96.4688Z" fill="#FF0606"/>
<path d="M116.603 89.6772H-2.8287V92.2242H116.603V89.6772Z" fill="#FF0606"/>
<path d="M116.603 82.8887H-2.8287V85.9872H116.603V82.8887Z" fill="#FF0606"/>
<path d="M116.603 76.0972H-2.8287V79.7521H116.603V76.0972Z" fill="#FF0606"/>
<path d="M116.603 69.3101H-2.8287V73.5165H116.603V69.3101Z" fill="#FF0606"/>
<path d="M116.603 62.5234H-2.8287V67.2815H116.603V62.5234Z" fill="#FF0606"/>
<path d="M116.603 55.7314H-2.8287V61.0459H116.603V55.7314Z" fill="#FF0606"/>
<path d="M116.603 48.9448H-2.8287V54.8109H116.603V48.9448Z" fill="#FF0606"/>
<path d="M116.603 42.1577H-2.8287V48.5754H116.603V42.1577Z" fill="#FF0606"/>
<path d="M116.603 35.3662H-2.8287V42.3402H116.603V35.3662Z" fill="#FF0606"/>
<path d="M116.603 28.5791H-2.8287V36.1047H116.603V28.5791Z" fill="#FF0606"/>
<path d="M116.603 21.7876H-2.8287V29.8696H116.603V21.7876Z" fill="#FF0606"/>
<path d="M116.603 15H-2.82867V23.6336H116.603V15Z" fill="#FF0606"/>
</g>
</g>
<defs>
<clipPath id="clip0_121_1951">
<rect width="81" height="92.5714" fill="white" transform="translate(18 15)"/>
</clipPath>
</defs>
</svg>
