<svg width="667" height="120" viewBox="0 0 667 120" fill="none" xmlns="http://www.w3.org/2000/svg">
<g clip-path="url(#clip0_121_1930)">
<mask id="mask0_121_1930" style="mask-type:luminance" maskUnits="userSpaceOnUse" x="1" y="0" width="102" height="121">
<path d="M102.948 0.62207V69.3267C102.948 97.3122 80.2602 120 52.2747 120C24.2892 120 1.60114 97.3122 1.60114 69.3267V0.62207H49.0105V74.2449C44.913 75.2272 41.8602 78.9205 41.8602 83.3164C41.8602 88.4646 46.0384 92.6428 51.1866 92.6428C56.3348 92.6428 60.513 88.4646 60.513 83.3164C60.513 78.9205 57.4602 75.2272 53.3628 74.2449V0.62207H102.948Z" fill="white"/>
</mask>
<g mask="url(#mask0_121_1930)">
<path d="M127.818 114.406H-27.0002V116.271H127.818V114.406Z" fill="#FF0606"/>
<path d="M127.818 105.608H-27.0002V108.188H127.818V105.608Z" fill="#FF0606"/>
<path d="M127.818 96.8037H-27.0002V100.105H127.818V96.8037Z" fill="#FF0606"/>
<path d="M127.818 88.0039H-27.0002V92.0205H127.818V88.0039Z" fill="#FF0606"/>
<path d="M127.818 79.1997H-27.0002V83.9375H127.818V79.1997Z" fill="#FF0606"/>
<path d="M127.818 70.4019H-27.0002V75.8547H127.818V70.4019Z" fill="#FF0606"/>
<path d="M127.818 61.604H-27.0002V67.7719H127.818V61.604Z" fill="#FF0606"/>
<path d="M127.818 52.8003H-27.0002V59.6894H127.818V52.8003Z" fill="#FF0606"/>
<path d="M127.818 44.0024H-27.0002V51.6066H127.818V44.0024Z" fill="#FF0606"/>
<path d="M127.818 35.2046H-27.0002V43.5238H127.818V35.2046Z" fill="#FF0606"/>
<path d="M127.818 26.4004H-27.0002V35.4408H127.818V26.4004Z" fill="#FF0606"/>
<path d="M127.818 17.6025H-27.0002V27.358H127.818V17.6025Z" fill="#FF0606"/>
<path d="M127.818 8.79883H-27.0002V19.2755H127.818V8.79883Z" fill="#FF0606"/>
<path d="M127.818 0H-27.0002V11.1917H127.818V0Z" fill="#FF0606"/>
</g>
</g>
<path d="M183.938 26.1212H198.289V70.2027C198.289 75.1521 197.107 79.483 194.743 83.1951C192.401 86.9072 189.119 89.8018 184.899 91.8788C180.679 93.9337 175.762 94.9612 170.15 94.9612C164.515 94.9612 159.588 93.9337 155.368 91.8788C151.147 89.8018 147.866 86.9072 145.524 83.1951C143.182 79.483 142.011 75.1521 142.011 70.2027V26.1212H156.362V68.9763C156.362 71.5616 156.925 73.8595 158.052 75.8703C159.201 77.881 160.814 79.4609 162.891 80.6098C164.968 81.7588 167.388 82.3333 170.15 82.3333C172.934 82.3333 175.354 81.7588 177.408 80.6098C179.485 79.4609 181.087 77.881 182.214 75.8703C183.363 73.8595 183.938 71.5616 183.938 68.9763V26.1212ZM209.831 94V43.0909H223.52V51.9735H224.05C224.978 48.8138 226.536 46.4274 228.724 44.8144C230.911 43.1793 233.43 42.3617 236.28 42.3617C236.987 42.3617 237.75 42.4059 238.567 42.4943C239.385 42.5827 240.103 42.7042 240.722 42.8589V55.3873C240.059 55.1884 239.142 55.0117 237.971 54.857C236.8 54.7023 235.728 54.625 234.756 54.625C232.679 54.625 230.823 55.078 229.188 55.9839C227.575 56.8677 226.293 58.1051 225.343 59.696C224.415 61.2869 223.951 63.1209 223.951 65.1979V94H209.831ZM248.287 94V26.1212H262.406V51.642H262.837C263.456 50.2721 264.351 48.8801 265.522 47.4659C266.715 46.0297 268.261 44.8365 270.162 43.8864C272.084 42.9141 274.47 42.428 277.321 42.428C281.033 42.428 284.458 43.4003 287.595 45.3447C290.733 47.267 293.241 50.1727 295.119 54.0616C296.997 57.9283 297.936 62.7784 297.936 68.6117C297.936 74.2904 297.019 79.0852 295.185 82.9962C293.374 86.8851 290.899 89.8349 287.761 91.8456C284.646 93.8343 281.154 94.8286 277.288 94.8286C274.548 94.8286 272.217 94.3756 270.294 93.4697C268.394 92.5638 266.836 91.4258 265.621 90.0559C264.406 88.6638 263.478 87.2607 262.837 85.8466H262.207V94H248.287ZM262.108 68.5455C262.108 71.5726 262.528 74.2131 263.367 76.4669C264.207 78.7206 265.422 80.4773 267.013 81.7367C268.604 82.9741 270.537 83.5928 272.813 83.5928C275.111 83.5928 277.056 82.9631 278.647 81.7036C280.238 80.422 281.442 78.6544 282.259 76.4006C283.099 74.1247 283.519 71.5063 283.519 68.5455C283.519 65.6067 283.11 63.0215 282.292 60.7898C281.475 58.5581 280.271 56.8125 278.68 55.553C277.089 54.2936 275.133 53.6638 272.813 53.6638C270.515 53.6638 268.571 54.2715 266.98 55.4867C265.411 56.702 264.207 58.4255 263.367 60.6572C262.528 62.8889 262.108 65.5183 262.108 68.5455ZM321.875 94.9612C318.626 94.9612 315.732 94.3977 313.191 93.2708C310.65 92.1218 308.639 90.4315 307.159 88.1998C305.7 85.946 304.971 83.1398 304.971 79.7813C304.971 76.953 305.49 74.5777 306.529 72.6553C307.567 70.733 308.982 69.1862 310.771 68.0152C312.561 66.8441 314.594 65.9602 316.87 65.3636C319.168 64.767 321.576 64.3472 324.095 64.1042C327.056 63.7948 329.442 63.5076 331.254 63.2424C333.066 62.9552 334.381 62.5354 335.198 61.983C336.016 61.4306 336.425 60.613 336.425 59.5303V59.3314C336.425 57.2323 335.762 55.6083 334.436 54.4593C333.132 53.3103 331.276 52.7358 328.868 52.7358C326.327 52.7358 324.305 53.2992 322.803 54.4261C321.3 55.5309 320.306 56.923 319.82 58.6023L306.761 57.5417C307.424 54.4482 308.727 51.7746 310.672 49.5208C312.616 47.2449 315.124 45.4994 318.196 44.2841C321.289 43.0467 324.869 42.428 328.934 42.428C331.763 42.428 334.469 42.7595 337.054 43.4223C339.662 44.0852 341.971 45.1127 343.982 46.5047C346.014 47.8968 347.616 49.6866 348.787 51.8741C349.959 54.0395 350.544 56.6357 350.544 59.6629V94H337.154V86.9403H336.756C335.939 88.5313 334.845 89.9343 333.475 91.1496C332.105 92.3428 330.459 93.2819 328.536 93.9669C326.614 94.6297 324.394 94.9612 321.875 94.9612ZM325.918 85.2169C327.995 85.2169 329.829 84.8081 331.42 83.9905C333.011 83.1509 334.259 82.024 335.165 80.6098C336.071 79.1957 336.524 77.5938 336.524 75.804V70.4015C336.082 70.6888 335.475 70.9539 334.701 71.197C333.95 71.4179 333.099 71.6278 332.149 71.8267C331.199 72.0035 330.249 72.1692 329.299 72.3239C328.349 72.4564 327.487 72.578 326.714 72.6884C325.056 72.9315 323.609 73.3182 322.372 73.8485C321.134 74.3788 320.173 75.0969 319.488 76.0028C318.803 76.8867 318.461 77.9915 318.461 79.3172C318.461 81.2396 319.157 82.709 320.549 83.7254C321.963 84.7197 323.753 85.2169 325.918 85.2169ZM375.617 64.5682V94H361.498V43.0909H374.955V52.0729H375.551C376.678 49.1121 378.567 46.7699 381.219 45.0464C383.87 43.3008 387.085 42.428 390.864 42.428C394.399 42.428 397.481 43.2014 400.111 44.7481C402.74 46.2948 404.784 48.5044 406.242 51.3769C407.701 54.2273 408.43 57.6301 408.43 61.5852V94H394.311V64.1042C394.333 60.9886 393.537 58.5581 391.924 56.8125C390.311 55.0448 388.091 54.161 385.262 54.161C383.362 54.161 381.683 54.5698 380.224 55.3873C378.788 56.2049 377.661 57.398 376.844 58.9669C376.048 60.5136 375.64 62.3807 375.617 64.5682ZM419.823 94V26.1212H446.604C451.752 26.1212 456.138 27.1045 459.762 29.071C463.385 31.0155 466.147 33.7222 468.048 37.1913C469.97 40.6383 470.931 44.6155 470.931 49.1231C470.931 53.6307 469.959 57.608 468.014 61.0549C466.07 64.5019 463.253 67.1866 459.563 69.1089C455.895 71.0313 451.454 71.9924 446.239 71.9924H429.17V60.4915H443.919C446.681 60.4915 448.957 60.0164 450.746 59.0663C452.558 58.0941 453.906 56.7573 454.79 55.0559C455.696 53.3324 456.149 51.3548 456.149 49.1231C456.149 46.8693 455.696 44.9028 454.79 43.2235C453.906 41.5221 452.558 40.2074 450.746 39.2794C448.935 38.3292 446.637 37.8542 443.853 37.8542H434.175V94H419.823ZM512.635 72.3239V43.0909H526.754V94H513.198V84.7528H512.668C511.519 87.7358 509.607 90.1332 506.934 91.9451C504.282 93.7569 501.045 94.6629 497.223 94.6629C493.82 94.6629 490.826 93.8895 488.241 92.3428C485.655 90.7961 483.634 88.5975 482.175 85.7472C480.739 82.8968 480.01 79.483 479.988 75.5057V43.0909H494.107V72.9867C494.129 75.9918 494.936 78.3671 496.527 80.1127C498.117 81.8583 500.25 82.7311 502.923 82.7311C504.625 82.7311 506.216 82.3444 507.696 81.571C509.177 80.7756 510.37 79.6045 511.276 78.0578C512.204 76.511 512.657 74.5997 512.635 72.3239ZM552.167 26.1212V94H538.048V26.1212H552.167ZM605.835 57.608L592.909 58.4034C592.688 57.2986 592.213 56.3043 591.484 55.4205C590.755 54.5145 589.794 53.7964 588.6 53.2661C587.429 52.7137 586.026 52.4375 584.391 52.4375C582.204 52.4375 580.359 52.9015 578.856 53.8295C577.354 54.7355 576.602 55.9508 576.602 57.4754C576.602 58.6907 577.088 59.7181 578.061 60.5578C579.033 61.3974 580.701 62.0713 583.065 62.5795L592.279 64.4356C597.229 65.452 600.919 67.0871 603.349 69.3409C605.78 71.5947 606.995 74.5556 606.995 78.2235C606.995 81.56 606.012 84.4877 604.045 87.0066C602.101 89.5256 599.427 91.4921 596.025 92.9063C592.644 94.2983 588.744 94.9943 584.325 94.9943C577.586 94.9943 572.216 93.5912 568.217 90.785C564.24 87.9568 561.908 84.1121 561.224 79.2509L575.111 78.5218C575.531 80.5767 576.547 82.1455 578.16 83.2282C579.773 84.2888 581.839 84.8191 584.358 84.8191C586.833 84.8191 588.821 84.3441 590.324 83.3939C591.849 82.4217 592.622 81.1733 592.644 79.6487C592.622 78.3671 592.081 77.3176 591.02 76.5C589.959 75.6604 588.324 75.0196 586.115 74.5777L577.298 72.821C572.327 71.8267 568.626 70.1032 566.195 67.6506C563.787 65.1979 562.582 62.0713 562.582 58.2708C562.582 55.0006 563.466 52.1834 565.234 49.8191C567.024 47.4549 569.532 45.6319 572.758 44.3504C576.006 43.0688 579.806 42.428 584.159 42.428C590.589 42.428 595.649 43.7869 599.339 46.5047C603.051 49.2225 605.217 52.9236 605.835 57.608ZM639.087 94.9943C633.85 94.9943 629.343 93.9337 625.564 91.8125C621.808 89.6692 618.913 86.642 616.88 82.7311C614.848 78.798 613.831 74.1468 613.831 68.7775C613.831 63.5407 614.848 58.9448 616.88 54.9896C618.913 51.0344 621.775 47.952 625.465 45.7424C629.177 43.5328 633.53 42.428 638.523 42.428C641.882 42.428 645.009 42.9694 647.903 44.0521C650.82 45.1127 653.361 46.7146 655.526 48.858C657.714 51.0013 659.415 53.697 660.63 56.9451C661.846 60.1711 662.453 63.9495 662.453 68.2803V72.1581H619.466V63.4081H649.163C649.163 61.3753 648.721 59.5745 647.837 58.0057C646.953 56.4369 645.727 55.2105 644.158 54.3267C642.611 53.4208 640.81 52.9678 638.755 52.9678C636.612 52.9678 634.712 53.465 633.055 54.4593C631.42 55.4315 630.138 56.7462 629.21 58.4034C628.282 60.0385 627.807 61.8614 627.785 63.8722V72.1913C627.785 74.7102 628.249 76.8867 629.177 78.7206C630.127 80.5546 631.464 81.9688 633.187 82.9631C634.911 83.9574 636.955 84.4545 639.319 84.4545C640.888 84.4545 642.324 84.2336 643.628 83.7917C644.931 83.3497 646.047 82.6869 646.975 81.803C647.903 80.9192 648.61 79.8365 649.096 78.5549L662.155 79.4167C661.492 82.5543 660.133 85.2942 658.078 87.6364C656.046 89.9564 653.416 91.7683 650.19 93.072C646.986 94.3535 643.285 94.9943 639.087 94.9943Z" fill="#D92D20"/>
<defs>
<clipPath id="clip0_121_1930">
<rect width="105" height="120" fill="white"/>
</clipPath>
</defs>
</svg>
